<svg width="52" height="86" viewBox="0 0 52 86" fill="none" xmlns="http://www.w3.org/2000/svg">
<path d="M26 0C11.7304 0 0 11.1275 0 27C0 32.9364 2.27002 41.1161 4.65625 45.875L24.2188 84.875C24.3864 85.2032 24.6415 85.4786 24.9558 85.671C25.2701 85.8634 25.6315 85.9652 26 85.9652C26.3685 85.9652 26.7299 85.8634 27.0442 85.671C27.3585 85.4786 27.6136 85.2032 27.7812 84.875L47.3438 45.875C49.73 41.116 52 32.9364 52 27C52 11.1275 40.2696 0 26 0ZM26 14C32.6274 14 38 19.3726 38 26C38 32.6273 32.6274 38 26 38C19.3726 38 14 32.6273 14 26C14 19.3726 19.3726 14 26 14Z" fill="black"/>
</svg>
