<svg width="80" height="56" viewBox="0 0 80 56" fill="none" xmlns="http://www.w3.org/2000/svg">
<path d="M6 0C5.20364 0 4.44408 0.1582 3.75 0.4375L37.7812 32.0625C39.2694 33.4439 40.6648 33.4446 42.1562 32.0625L76.25 0.4375C75.5559 0.1582 74.7964 0 74 0H6V0ZM0.0625 5.1875C0.02741 5.451 0 5.7266 0 6V50C0 53.3239 2.67606 56 6 56H74C77.3239 56 80 53.3239 80 50V6C80 5.7266 79.9726 5.451 79.9375 5.1875L46.2188 36.4375C42.7152 39.6842 37.2218 39.6891 33.7188 36.4375L0.062499 5.1875H0.0625Z" fill="black"/>
</svg>
